<svg width="19" height="19" viewBox="0 0 19 19" fill="none" xmlns="http://www.w3.org/2000/svg">
<g id="5d2603de528d2e2aa8bf8e81_ducha.svg" clip-path="url(#clip0_1_64)">
<g id="Group">
<path id="Vector" d="M13.8399 0.449951H9.78516C7.84662 0.449951 6.26953 2.02704 6.26953 3.96558V6.03238C3.92642 6.37405 2.12109 8.39636 2.12109 10.8329C2.12109 11.2211 2.43585 11.536 2.82422 11.536H11.1211C11.5095 11.536 11.8242 11.2211 11.8242 10.8329C11.8242 8.39636 10.0189 6.37405 7.67578 6.03238V3.96558C7.67578 2.8024 8.62198 1.8562 9.78516 1.8562H13.8398C15.003 1.8562 15.9492 2.8024 15.9492 3.96558V17.7468C15.9492 18.1352 16.2639 18.45 16.6523 18.45C17.0407 18.45 17.3554 18.1352 17.3554 17.7468V3.96558C17.3556 2.02704 15.7783 0.449951 13.8399 0.449951ZM10.3459 10.1296H3.59944C3.92491 8.56583 5.31372 7.38741 6.97266 7.38741C8.63159 7.38741 10.0204 8.56583 10.3459 10.1296ZM7.67578 13.2527V14.3074C7.67578 14.6958 7.36102 15.0105 6.97266 15.0105C6.58429 15.0105 6.26953 14.6958 6.26953 14.3074V13.2527C6.26953 12.8644 6.58429 12.5496 6.97266 12.5496C7.36102 12.5496 7.67578 12.8644 7.67578 13.2527ZM7.6674 16.6921V17.7468C7.6674 18.1352 7.35265 18.45 6.96428 18.45C6.57605 18.45 6.26115 18.1352 6.26115 17.7468V16.6921C6.26115 16.3038 6.57605 15.989 6.96428 15.989C7.35265 15.989 7.6674 16.3038 7.6674 16.6921ZM4.91437 13.2527V14.3074C4.91437 14.6958 4.59947 15.0105 4.21124 15.0105C3.82288 15.0105 3.50812 14.6958 3.50812 14.3074V13.2527C3.50812 12.8644 3.82288 12.5496 4.21124 12.5496C4.59947 12.5496 4.91437 12.8644 4.91437 13.2527ZM4.90599 16.6921V17.7468C4.90599 18.1352 4.59123 18.45 4.20287 18.45C3.8145 18.45 3.49974 18.1352 3.49974 17.7468V16.6921C3.49974 16.3038 3.8145 15.989 4.20287 15.989C4.59123 15.989 4.90599 16.3038 4.90599 16.6921ZM10.429 13.2527V14.3074C10.429 14.6958 10.1141 15.0105 9.72583 15.0105C9.33746 15.0105 9.02271 14.6958 9.02271 14.3074V13.2527C9.02271 12.8644 9.33746 12.5496 9.72583 12.5496C10.1141 12.5496 10.429 12.8644 10.429 13.2527ZM10.4206 16.6921V17.7468C10.4206 18.1352 10.1057 18.45 9.71745 18.45C9.32909 18.45 9.01433 18.1352 9.01433 17.7468V16.6921C9.01433 16.3038 9.32909 15.989 9.71745 15.989C10.1057 15.989 10.4206 16.3038 10.4206 16.6921Z" fill="#AAAFB9"/>
</g>
</g>
<defs>
<clipPath id="clip0_1_64">
<rect width="18" height="18" fill="white" transform="translate(0.75 0.449951)"/>
</clipPath>
</defs>
</svg>
