<svg width="23" height="23" viewBox="0 0 23 23" fill="none" xmlns="http://www.w3.org/2000/svg">
<g id="5d2603de6c978835bb853f99_cama.svg" clip-path="url(#clip0_1_52)">
<g id="Group">
<g id="Group_2">
<g id="Group_3">
<path id="Vector" d="M20.3588 9.77935V9.75582V6.20288C20.3588 4.60288 19.2294 4.01465 18.1706 4.01465H4.75882C3.7 4.01465 2.57059 4.57935 2.57059 6.20288V9.75582V9.77935C1.51176 9.897 0.5 10.6029 0.5 12.2264V15.0029C0.5 15.4735 0.876471 15.8499 1.34706 15.8499H1.62941V18.0382C1.62941 18.5088 2.00588 18.8852 2.47647 18.8852H3.27647C3.74706 18.8852 4.12353 18.5088 4.12353 18.0382V15.8264H18.8765V18.0382C18.8765 18.5088 19.2529 18.8852 19.7235 18.8852H20.5235C20.9941 18.8852 21.3706 18.5088 21.3706 18.0382V15.8264H21.6529C22.1235 15.8264 22.5 15.4499 22.5 14.9794V12.2264C22.4294 10.6029 21.4176 9.897 20.3588 9.77935ZM3.37059 6.20288H3.41765C3.41765 5.097 4.14706 4.86171 4.75882 4.86171H18.1706C18.7824 4.86171 19.5118 5.097 19.5118 6.20288V9.75582H18.8765V7.7323C18.8765 7.26171 18.5 6.88524 18.0294 6.88524H12.8529C12.3824 6.88524 12.0059 7.26171 12.0059 7.7323V9.75582H11.0176V7.7323C11.0176 7.26171 10.6412 6.88524 10.1706 6.88524H4.99412C4.52353 6.88524 4.14706 7.26171 4.14706 7.7323V9.75582H3.37059V6.20288ZM18.0294 7.7323V9.75582H12.8529V7.7323H18.0294ZM10.2176 7.7323V9.75582H5.04118V7.7323H10.2176ZM3.25294 18.0382H2.45294V15.8264H3.25294V18.0382ZM20.4765 18.0382H19.6765V15.8264H20.4765V18.0382ZM21.5824 15.0029H20.4765H19.6765H3.25294H2.45294H1.32353V13.7558H21.5824V15.0029ZM21.5824 12.9088H1.32353V12.2264C1.32353 10.8146 2.35882 10.6029 2.94706 10.6029H3.39412H5.01765H10.1941H12.8529H18.0294H19.5118H19.9588C20.5706 10.6029 21.5824 10.8146 21.5824 12.2264V12.9088Z" fill="#AAAFB9"/>
</g>
</g>
</g>
</g>
<defs>
<clipPath id="clip0_1_52">
<rect width="22" height="22" fill="white" transform="translate(0.5 0.449951)"/>
</clipPath>
</defs>
</svg>
